HIERARCHY
ROOT Root
{
  OFFSET 13.0112 11.8871 0.544473
  CHANNELS 6 Xposition Yposition Zposition Zrotation Xrotation Yrotation
  JOINT Spine
  {
    OFFSET 5.3114 0 0
    CHANNELS 3 Zrotation Xrotation Yrotation
    JOINT Spine1
    {
      OFFSET 2.79004 0 0
      CHANNELS 3 Zrotation Xrotation Yrotation
      JOINT Neck
      {
        OFFSET 1.43377 0 0
        CHANNELS 3 Zrotation Xrotation Yrotation
        JOINT Head
        {
          OFFSET 1.86043 0 0
          CHANNELS 3 Zrotation Xrotation Yrotation
          End Site
          {
            OFFSET 0 0 0
          }
        }
      }
      JOINT LeftArm
      {
        OFFSET 0.0387506 0 2.55754
        CHANNELS 3 Zrotation Xrotation Yrotation
        JOINT LeftForeArm
        {
          OFFSET 4.24845 0 0
          CHANNELS 3 Zrotation Xrotation Yrotation
          JOINT LeftHand
          {
            OFFSET 4.01008 0 0
            CHANNELS 3 Zrotation Xrotation Yrotation
            End Site
            {
              OFFSET 0 0 0
            }
          }
        }
      }
      JOINT RightArm
      {
        OFFSET 0.0387506 0 -2.55754
        CHANNELS 3 Zrotation Xrotation Yrotation
        JOINT RightForeArm
        {
          OFFSET -4.24845 0 0
          CHANNELS 3 Zrotation Xrotation Yrotation
          JOINT RightHand
          {
            OFFSET -4.01009 0 0
            CHANNELS 3 Zrotation Xrotation Yrotation
            End Site
            {
              OFFSET 0 0 0
            }
          }
        }
      }
    }
  }
  JOINT LeftUpLeg
  {
    OFFSET -1.23318 0 2.05692
    CHANNELS 3 Zrotation Xrotation Yrotation
    JOINT LeftLeg
    {
      OFFSET 5.46397 0 0
      CHANNELS 3 Zrotation Xrotation Yrotation
      JOINT LeftFoot
      {
        OFFSET 4.68898 0 0
        CHANNELS 3 Zrotation Xrotation Yrotation
        End Site
        {
          OFFSET 0 0 0
        }
      }
    }
  }
  JOINT RightUpLeg
  {
    OFFSET -1.24454 0 -2.05007
    CHANNELS 3 Zrotation Xrotation Yrotation
    JOINT RightLeg
    {
      OFFSET -5.46397 0 0
      CHANNELS 3 Zrotation Xrotation Yrotation
      JOINT RightFoot
      {
        OFFSET -4.68901 0 0
        CHANNELS 3 Zrotation Xrotation Yrotation
        End Site
        {
          OFFSET 0 0 0
        }
      }
    }
  }
}
MOTION
Frames:	21
Frame Time:	0.00833333
13.0112 11.8871 0.544473 -0 90 90 9.69808e-018 1.34041e-020 0.158382 1.41245e-030 7.06225e-031 2.48481e-017 -7.30747e-017 7.61111e-019 -1.19349 3.40995e-017 1.65719e-019 0.556895 -2.12238e-008 -1.53545e-005 -90.1584 -2.50273e-005 -2.47192e-012 6.55612e-006 1.52588e-005 -6.98387e-015 174.455 180 -4.60993e-005 -89.8417 -5.49628e-005 -2.25992e-011 3.612e-005 1.52588e-005 6.98387e-015 174.455 -3.94718 -0.24875 -175.995 -8.56264 0.175933 -0.870038 4.60945 -0.0775208 176.869 177.96 -0.126878 -176.037 -4.42351 0.0845921 -0.877202 2.38062 -0.0336168 176.598 
12.9621 11.8904 0.417947 92.5249 65.4456 1.22907 -2.51904 0.289169 0.449448 1.92668 0.0968089 0.229262 -4.06691 0.0537932 -2.68146 7.94951 -0.0685059 1.29465 3.10728 -1.76512 -111.614 7.92492 0.475023 4.52128 -0.29475 -3.36435 174.449 -175.245 -1.73897 -113.322 8.85199 0.680374 5.00269 0.342045 3.90198 174.446 -10.573 0.321228 -177.494 -17.9891 -0.17827 -1.04408 10.6979 -0.0454046 176.977 169.997 -2.94978 -176.799 -15.3142 -0.231345 -1.07899 4.71413 3.58242 175.995 
12.9106 11.8938 0.283308 96.6262 39.4871 1.36456 -5.17608 0.593207 0.766094 3.96266 0.198962 0.472814 -8.36502 0.112314 -4.25877 16.3504 -0.138419 2.07448 4.27449 -6.84252 -133.981 16.2211 0.967259 9.30169 -0.608876 -6.92589 174.421 -172.502 -6.70878 -137.92 18.0908 1.38461 10.2985 0.706011 8.01734 174.409 -17.5482 0.929315 -179.073 -27.9606 -0.552676 -1.22822 17.1315 -0.0106102 177.09 161.487 -5.9289 -177.601 -26.8384 -0.565176 -1.29266 7.25284 7.40214 175.338 
12.864 11.897 0.164897 100.479 16.3458 1.59671 -7.56594 0.867394 1.03168 5.77772 0.290408 0.687794 -12.1923 0.16077 -5.65741 23.8538 -0.20533 2.77017 2.2228 -12.9389 -154.025 23.5522 1.38964 13.5674 -0.89218 -10.0927 174.378 -173.367 -12.4175 -159.978 26.204 1.97902 15.0161 1.03849 11.7054 174.351 -23.735 1.46327 179.509 -36.8485 -0.886545 -1.39232 22.8744 0.0188472 177.193 153.844 -8.60511 -178.318 -37.1023 -0.863073 -1.48271 9.61696 10.7959 174.72 
12.8296 11.8994 0.0870576 103.313 0.239385 1.85301 -9.28127 1.06707 1.16953 7.04214 0.355104 0.831337 -14.8491 0.184649 -6.60937 29.1099 -0.264887 3.25551 -1.33117 -17.314 -168.557 28.6265 1.67111 16.5431 -1.09054 -12.2731 174.337 -176.156 -16.2383 -175.745 31.752 2.35876 18.2803 1.28022 14.3258 174.294 -28.0147 1.81155 178.494 -43.0226 -1.11917 -1.50616 26.8906 0.0349486 177.266 148.525 -10.5188 -178.822 -44.2104 -1.07125 -1.61359 11.3764 13.1392 174.257 
12.8124 11.901 0.0661708 104.462 -6.02233 1.96021 -10.0508 1.1633 1.12851 7.53181 0.382399 0.871206 -15.8666 0.171296 -6.93098 31.231 -0.319588 3.44529 -3.17771 -19.1742 -174.776 30.6077 1.77841 17.7099 -1.16257 -13.0557 174.321 -177.707 -17.854 177.978 33.8075 2.47738 19.5007 1.38603 15.4542 174.265 -29.6567 1.90962 178.051 -45.3953 -1.20986 -1.54954 28.4798 0.036538 177.298 146.531 -11.3805 -179.031 -46.8954 -1.15424 -1.66133 12.2265 14.0097 174.044 
12.8074 11.9018 0.0859572 104.325 -5.25493 1.89357 -10.1442 1.18561 0.959709 7.46848 0.382981 0.837195 -15.7134 0.131554 -6.80259 31.1116 -0.370604 3.42399 -2.79394 -19.5607 -174.773 30.3947 1.76804 17.5842 -1.14276 -12.8408 174.325 -177.391 -18.3656 178.743 33.3911 2.42074 19.2604 1.39181 15.5168 174.264 -29.4207 1.82897 178.015 -45.0523 -1.19919 -1.54258 28.3359 0.0275611 177.301 146.927 -11.4901 -179.025 -46.4207 -1.14782 -1.64968 12.4062 13.8309 174.016 
12.8073 11.9023 0.12177 103.679 -1.68158 1.7632 -9.96472 1.17705 0.739739 7.19127 0.372819 0.779484 -15.0969 0.0862953 -6.50214 30.0755 -0.41162 3.31998 -1.43909 -19.355 -172.249 29.3054 1.71086 16.9421 -1.08883 -12.2541 174.338 -176.243 -18.3963 -177.64 31.9954 2.29586 18.4421 1.35715 15.1495 174.274 -28.427 1.66286 178.134 -43.6232 -1.14839 -1.51552 27.5144 0.00764994 177.294 148.284 -11.2724 -178.921 -44.687 -1.10504 -1.61462 12.2907 13.248 174.068 
12.8046 11.9029 0.14896 103.29 0.474202 1.6807 -9.91568 1.18068 0.545206 7.0393 0.36788 0.748254 -14.7248 0.0564947 -6.30758 29.4467 -0.436291 3.26157 -0.591916 -19.3884 -170.971 28.6569 1.67741 16.5602 -1.05836 -11.9211 174.344 -175.529 -18.547 -175.431 31.115 2.21063 17.9284 1.34213 14.9878 174.278 -27.7961 1.50452 178.157 -42.738 -1.1187 -1.4986 27.0708 -0.0235639 177.3 149.166 -11.1527 -178.831 -43.595 -1.07896 -1.59214 12.2574 12.9061 174.088 
12.7983 11.9035 0.163396 103.278 0.505757 1.66564 -10.0711 1.2054 0.378602 7.07491 0.37123 0.75521 -14.7221 0.0476602 -6.26869 29.4339 -0.441255 3.26814 -0.490595 -19.8295 -171.567 28.673 1.68069 16.5692 -1.05943 -11.9326 174.344 -175.461 -18.9876 -175.338 31.0067 2.18572 17.8685 1.35768 15.1472 174.274 -27.721 1.36964 178.031 -42.6607 -1.12034 -1.49672 27.1845 -0.0553733 177.316 149.327 -11.1912 -178.764 -43.4668 -1.07808 -1.58851 12.358 12.9221 174.062 
12.792 11.904 0.177408 103.266 0.525849 1.66405 -10.2272 1.22911 0.205049 7.1266 0.374749 0.774146 -14.7326 0.0486392 -6.24532 29.3791 -0.430452 3.27617 -0.422372 -20.2377 -172.161 28.6932 1.68479 16.5805 -1.06381 -11.9802 174.343 -175.43 -19.3736 -175.241 30.9197 2.16593 17.8204 1.37352 15.3067 174.27 -27.6396 1.21155 177.886 -42.5791 -1.1227 -1.49479 27.3266 -0.091184 177.334 149.486 -11.1789 -178.666 -43.3503 -1.07599 -1.58564 12.4083 12.9703 174.042 
12.7855 11.9045 0.19105 103.238 0.53898 1.65887 -10.3698 1.24835 0.0450945 7.18277 0.377634 0.798384 -14.7433 0.0555059 -6.2306 29.3065 -0.408477 3.28976 -0.372266 -20.623 -172.742 28.7119 1.68859 16.5909 -1.07401 -12.0911 174.34 -175.418 -19.7042 -175.135 30.8464 2.14936 17.7798 1.38757 15.4473 174.266 -27.542 1.03002 177.741 -42.5079 -1.12573 -1.49313 27.4903 -0.152538 177.364 149.659 -11.1367 -178.561 -43.2347 -1.07338 -1.58299 12.4282 13.0321 174.026 
12.7787 11.905 0.204373 103.179 0.549651 1.633 -10.4848 1.25968 -0.0807118 7.23181 0.379081 0.821244 -14.7413 0.0643337 -6.21763 29.2404 -0.379926 3.31297 -0.32544 -20.9957 -173.3 28.7235 1.69095 16.5974 -1.09256 -12.2925 174.336 -175.403 -19.9784 -175.018 30.779 2.1341 17.7424 1.39772 15.5503 174.263 -27.4181 0.824783 177.611 -42.4619 -1.12941 -1.49201 27.6689 -0.26098 177.417 149.861 -11.0856 -178.476 -43.1093 -1.07099 -1.57999 12.4375 13.0887 174.014 
12.7714 11.9056 0.21729 103.072 0.5564 1.57712 -10.5559 1.26071 -0.158083 7.2735 0.378784 0.841623 -14.7186 0.075694 -6.21061 29.1737 -0.342886 3.35136 -0.279706 -21.3551 -173.833 28.7358 1.69345 16.6043 -1.12451 -12.6386 174.328 -175.388 -20.1922 -174.881 30.716 2.11985 17.7075 1.40179 15.5952 174.262 -27.2515 0.584777 177.505 -42.4479 -1.13423 -1.4916 27.8696 -0.44004 177.504 150.107 -11.0077 -178.413 -42.9691 -1.06873 -1.5765 12.4212 13.1392 174.008 
12.7637 11.9063 0.229808 102.93 0.557712 1.50193 -10.5948 1.25378 -0.200912 7.31307 0.377203 0.862858 -14.6835 0.0911414 -6.21122 29.0978 -0.295955 3.40126 -0.240818 -21.6968 -174.347 28.7487 1.69607 16.6116 -1.16718 -13.0992 174.318 -175.382 -20.3472 -174.73 30.6615 2.10757 17.6772 1.40143 15.5971 174.262 -27.0522 0.313812 177.411 -42.4572 -1.14003 -1.4917 28.0938 -0.672325 177.616 150.386 -10.8998 -178.36 -42.8205 -1.06631 -1.57281 12.3754 13.1921 174.008 
12.756 11.907 0.242117 102.779 0.558013 1.42039 -10.6298 1.24249 -0.230921 7.34713 0.374681 0.884926 -14.648 0.108224 -6.20872 29.0351 -0.244495 3.45293 -0.206082 -22.026 -174.838 28.7446 1.69526 16.6093 -1.21143 -13.5749 174.307 -175.374 -20.4514 -174.578 30.6154 2.09722 17.6516 1.40025 15.5908 174.263 -26.8498 0.0339357 177.323 -42.4808 -1.14583 -1.49212 28.3254 -0.917994 177.735 150.671 -10.8043 -178.321 -42.6701 -1.06412 -1.56904 12.3369 13.2434 174.006 
12.7486 11.9075 0.25441 102.646 0.561732 1.34546 -10.6889 1.23043 -0.269832 7.37229 0.371562 0.907808 -14.624 0.12449 -6.19239 29.0079 -0.193864 3.4966 -0.172931 -22.3481 -175.3 28.706 1.68746 16.5877 -1.24796 -13.9658 174.297 -175.353 -20.5127 -174.44 30.5779 2.0888 17.6308 1.40187 15.6108 174.262 -26.6737 -0.232806 177.233 -42.5097 -1.1506 -1.49264 28.548 -1.13718 177.843 150.938 -10.7635 -178.297 -42.5242 -1.06254 -1.56529 12.3427 13.2892 173.994 
12.7415 11.9079 0.266615 102.543 0.56961 1.27991 -10.7848 1.21732 -0.325072 7.38292 0.367656 0.934473 -14.6193 0.141035 -6.15373 29.0339 -0.142049 3.5246 -0.138425 -22.6241 -175.744 28.6252 1.671 16.5424 -1.27403 -14.2445 174.29 -175.314 -20.5139 -174.323 30.5492 2.08237 17.6149 1.40911 15.6844 174.26 -26.5384 -0.491083 177.136 -42.5467 -1.15393 -1.49335 28.7647 -1.32792 177.941 151.177 -10.795 -178.295 -42.3806 -1.06181 -1.56141 12.4046 13.336 173.966 
12.7347 11.9083 0.278671 102.453 0.579434 1.21704 -10.9009 1.20167 -0.384511 7.3824 0.362873 0.963941 -14.6261 0.158586 -6.10035 29.0974 -0.0873381 3.54383 -0.102798 -22.8647 -176.168 28.5125 1.648 16.4793 -1.2946 -14.4644 174.284 -175.263 -20.4574 -174.218 30.5293 2.07794 17.6038 1.41944 15.787 174.257 -26.4258 -0.749133 177.037 -42.5947 -1.15641 -1.49431 28.9816 -1.50859 178.037 151.402 -10.8741 -178.31 -42.2371 -1.06166 -1.5574 12.5021 13.3833 173.929 
12.728 11.9086 0.290783 102.363 0.591194 1.15568 -11.0212 1.18521 -0.440534 7.38089 0.35771 0.990264 -14.6325 0.174138 -6.04565 29.1701 -0.0355395 3.56637 -0.0699607 -23.1502 -176.551 28.3774 1.6206 16.4037 -1.31184 -14.6477 174.279 -175.213 -20.3803 -174.117 30.5174 2.07532 17.5972 1.42838 15.8758 174.255 -26.3171 -0.990267 176.942 -42.6455 -1.15854 -1.4953 29.1862 -1.66977 178.123 151.623 -10.9799 -178.336 -42.1006 -1.0618 -1.5536 12.6242 13.4168 173.888 
12.7215 11.9089 0.303156 102.261 0.60488 1.09461 -11.1295 1.16971 -0.485527 7.38853 0.352659 1.00749 -14.6267 0.184685 -6.00303 29.2241 0.00753654 3.60431 -0.0456189 -23.5609 -176.872 28.2295 1.59095 16.3207 -1.32794 -14.8164 174.275 -175.174 -20.3195 -174.008 30.513 2.07435 17.5948 1.43146 15.9082 174.254 -26.193 -1.19781 176.858 -42.6908 -1.16081 -1.49613 29.3658 -1.80207 178.195 151.85 -11.0914 -178.364 -41.9781 -1.06193 -1.55033 12.7593 13.4223 173.85 
